HIERARCHY
ROOT hip
{
  OFFSET 0 0 0
  CHANNELS 6 Xposition Yposition Zposition Zrotation Yrotation Xrotation
  JOINT abdomen
  {
    OFFSET 0 20.6881 -0.73152
    CHANNELS 3 Zrotation Xrotation Yrotation
    JOINT chest
    {
      OFFSET 0 11.7043 -0.48768
      CHANNELS 3 Zrotation Xrotation Yrotation
      JOINT neck
      {
        OFFSET 0 22.1894 -2.19456
        CHANNELS 3 Zrotation Xrotation Yrotation
        JOINT head
        {
          OFFSET -0.24384 7.07133 1.2192
          CHANNELS 3 Zrotation Xrotation Yrotation
          JOINT leftEye
          {
            OFFSET 4.14528 8.04674 8.04672
            CHANNELS 3 Zrotation Xrotation Yrotation
            End Site
            {
              OFFSET 1 0 0
            }
          }
          JOINT rightEye
          {
            OFFSET -3.6576 8.04674 8.04672
            CHANNELS 3 Zrotation Xrotation Yrotation
            End Site
            {
              OFFSET 1 0 0
            }
          }
        }
      }
      JOINT rCollar
      {
        OFFSET -2.68224 19.2634 -4.8768
        CHANNELS 3 Zrotation Xrotation Yrotation
        JOINT rShldr
        {
          OFFSET -8.77824 -1.95073 1.46304
          CHANNELS 3 Zrotation Xrotation Yrotation
          JOINT rForeArm
          {
            OFFSET -28.1742 -1.7115 0.48768
            CHANNELS 3 Zrotation Xrotation Yrotation
            JOINT rHand
            {
              OFFSET -22.5879 0.773209 7.07136
              CHANNELS 3 Zrotation Xrotation Yrotation
              JOINT rThumb1
              {
                OFFSET -1.2192 -0.487915 3.41376
                CHANNELS 3 Zrotation Xrotation Yrotation
                JOINT rThumb2
                {
                  OFFSET -3.37035 -0.52449 3.41376
                  CHANNELS 3 Zrotation Xrotation Yrotation
                  End Site
                  {
                    OFFSET -1.78271 -1.18214 1.43049
                  }
                }
              }
              JOINT rIndex1
              {
                OFFSET -7.75947 0.938293 5.60832
                CHANNELS 3 Zrotation Xrotation Yrotation
                JOINT rIndex2
                {
                  OFFSET -2.54057 -0.884171 1.56538
                  CHANNELS 3 Zrotation Xrotation Yrotation
                  End Site
                  {
                    OFFSET -1.62519 -0.234802 1.16502
                  }
                }
              }
              JOINT rMid1
              {
                OFFSET -8.24714 1.18213 3.41376
                CHANNELS 3 Zrotation Xrotation Yrotation
                JOINT rMid2
                {
                  OFFSET -3.10165 -0.590103 1.0647
                  CHANNELS 3 Zrotation Xrotation Yrotation
                  End Site
                  {
                    OFFSET -2.48547 -0.328903 0.83742
                  }
                }
              }
              JOINT rRing1
              {
                OFFSET -8.82822 0.546677 1.51678
                CHANNELS 3 Zrotation Xrotation Yrotation
                JOINT rRing2
                {
                  OFFSET -2.60934 -0.819778 -0.0198488
                  CHANNELS 3 Zrotation Xrotation Yrotation
                  End Site
                  {
                    OFFSET -2.33842 -0.294052 0.168128
                  }
                }
              }
              JOINT rPinky1
              {
                OFFSET -8.27202 -0.0477905 -0.4584
                CHANNELS 3 Zrotation Xrotation Yrotation
                JOINT rPinky2
                {
                  OFFSET -1.82734 -0.647385 -0.700984
                  CHANNELS 3 Zrotation Xrotation Yrotation
                  End Site
                  {
                    OFFSET -1.69225 -0.51767 -0.607171
                  }
                }
              }
            }
          }
        }
      }
      JOINT lCollar
      {
        OFFSET 2.68224 19.2634 -4.8768
        CHANNELS 3 Zrotation Xrotation Yrotation
        JOINT lShldr
        {
          OFFSET 8.77824 -1.95073 1.46304
          CHANNELS 3 Zrotation Xrotation Yrotation
          JOINT lForeArm
          {
            OFFSET 28.1742 -1.7115 0.48768
            CHANNELS 3 Zrotation Xrotation Yrotation
            JOINT lHand
            {
              OFFSET 22.5879 0.773209 7.07136
              CHANNELS 3 Zrotation Xrotation Yrotation
              JOINT lThumb1
              {
                OFFSET 1.2192 -0.487915 3.41376
                CHANNELS 3 Zrotation Xrotation Yrotation
                JOINT lThumb2
                {
                  OFFSET 3.37035 -0.52449 3.41376
                  CHANNELS 3 Zrotation Xrotation Yrotation
                  End Site
                  {
                    OFFSET 1.78271 -1.18214 1.43049
                  }
                }
              }
              JOINT lIndex1
              {
                OFFSET 7.75947 0.938293 5.60832
                CHANNELS 3 Zrotation Xrotation Yrotation
                JOINT lIndex2
                {
                  OFFSET 2.54057 -0.884171 1.56538
                  CHANNELS 3 Zrotation Xrotation Yrotation
                  End Site
                  {
                    OFFSET 1.62519 -0.234802 1.16502
                  }
                }
              }
              JOINT lMid1
              {
                OFFSET 8.24714 1.18213 3.41376
                CHANNELS 3 Zrotation Xrotation Yrotation
                JOINT lMid2
                {
                  OFFSET 3.10165 -0.590103 1.0647
                  CHANNELS 3 Zrotation Xrotation Yrotation
                  End Site
                  {
                    OFFSET 2.48547 -0.328903 0.83742
                  }
                }
              }
              JOINT lRing1
              {
                OFFSET 8.82822 0.546677 1.51678
                CHANNELS 3 Zrotation Xrotation Yrotation
                JOINT lRing2
                {
                  OFFSET 2.60934 -0.819778 -0.0198488
                  CHANNELS 3 Zrotation Xrotation Yrotation
                  End Site
                  {
                    OFFSET 2.33842 -0.294052 0.168128
                  }
                }
              }
              JOINT lPinky1
              {
                OFFSET 8.27202 -0.0477905 -0.4584
                CHANNELS 3 Zrotation Xrotation Yrotation
                JOINT lPinky2
                {
                  OFFSET 1.82734 -0.647385 -0.700984
                  CHANNELS 3 Zrotation Xrotation Yrotation
                  End Site
                  {
                    OFFSET 1.69225 -0.51767 -0.607171
                  }
                }
              }
            }
          }
        }
      }
    }
  }
  JOINT rButtock
  {
    OFFSET -8.77824 4.35084 1.2192
    CHANNELS 3 Zrotation Xrotation Yrotation
    JOINT rThigh
    {
      OFFSET 0 -1.70687 -2.19456
      CHANNELS 3 Zrotation Xrotation Yrotation
      JOINT rShin
      {
        OFFSET 0 -36.8199 0.73152
        CHANNELS 3 Zrotation Xrotation Yrotation
        JOINT rFoot
        {
          OFFSET 0.73152 -45.1104 -5.12064
          CHANNELS 3 Zrotation Xrotation Yrotation
          End Site
          {
            OFFSET -1.1221 -3.69964 12.103
          }
        }
      }
    }
  }
  JOINT lButtock
  {
    OFFSET 8.77824 4.35084 1.2192
    CHANNELS 3 Zrotation Xrotation Yrotation
    JOINT lThigh
    {
      OFFSET 0 -1.70687 -2.19456
      CHANNELS 3 Zrotation Xrotation Yrotation
      JOINT lShin
      {
        OFFSET 0 -36.8199 0.73152
        CHANNELS 3 Zrotation Xrotation Yrotation
        JOINT lFoot
        {
          OFFSET -0.73152 -45.1104 -5.12064
          CHANNELS 3 Zrotation Xrotation Yrotation
          End Site
          {
            OFFSET 1.1221 -3.69964 12.103
          }
        }
      }
    }
  }
}
MOTION
Frames:	4
Frame Time:	0.00833333
84.3703 83.8008 107.963 0.0 0.0 0.0 -2.04816 -0.00112508 -0.0554692 -0.564325 0.00679415 -0.0976947 -1.04717e-14 0.0 -4.96962e-16 -3.05476e-14 3.18055e-15 -1.36975e-15 -0.0 0.0 0.0 -0.0 0.0 0.0 -4.92096e-15 7.8815e-17 -4.96962e-17 -1.05044e-13 1.45982e-15 -5.1684e-15 -1.83926e-12 6.18419e-13 -6.67917e-14 -2.12367e-11 -2.6247e-13 -1.14818e-12 -5.00637e-11 7.7507e-13 -2.58897e-12 -8.64713e-11 1.33901e-12 -4.47663e-12 -5.00603e-11 7.74465e-13 -2.59533e-12 7.73091 5.47488 0.417314 -5.00648e-11 7.7526e-13 -2.59215e-12 2.90554 0.965183 0.102902 -5.006e-11 7.75558e-13 -2.59295e-12 10.2786 0.731801 0.0259123 -5.00699e-11 7.77248e-13 -2.57943e-12 2.22167 -0.733487 -0.20892 -5.11802e-15 8.21152e-17 -4.47265e-16 -1.09707e-13 1.52816e-15 -6.55989e-15 -1.87101e-12 -4.96962e-13 -1.08139e-13 -2.12377e-11 8.62999e-13 -1.07185e-12 -5.01179e-11 7.96674e-13 -2.59215e-12 -8.65369e-11 1.374e-12 -4.47584e-12 -5.01232e-11 7.99512e-13 -2.58897e-12 -7.73091 5.47488 -0.417314 -5.01182e-11 7.96729e-13 -2.59215e-12 -2.90554 0.965183 -0.102902 -5.01232e-11 7.96232e-13 -2.59613e-12 -10.2786 0.731801 -0.0259123 -5.01086e-11 7.98717e-13 -2.60487e-12 -2.22167 -0.733487 0.20892 -2.03217e-16 0.0 -3.88251e-19 -1.04875 -1.92716 0.000314159 -0.00908252 -2.07858 -0.074906 -0.506008 3.9982 0.139421 2.03217e-16 0.0 3.88251e-19 -2.06454 -7.46955 0.204651 -0.00450251 7.96082 -0.117539 0.53924 -0.498713 -0.0508063
80.9292 82.4223 99.3062 -130.087 -74.0161 137.567 1.92536 2.92092 0.746235 -0.488383 -0.567775 0.176209 -2.56714 3.76762 -2.16765 3.30461 -7.86874 -3.42745 -0.0 0.0 0.0 -0.0 0.0 0.0 1.45303e-14 2.15691e-13 -4.8771e-14 21.3525 3.84867 1.32111 -2.76486 -1.06124 4.50723 0.0230546 -3.38854 -0.473279 -5.78484e-10 1.00684e-09 -2.94775e-09 -9.77106e-10 1.74284e-09 -5.0985e-09 -5.7848e-10 1.00684e-09 -2.94776e-09 7.73091 5.47488 0.417314 -5.78486e-10 1.00684e-09 -2.94775e-09 2.90554 0.965183 0.102902 -5.7848e-10 1.00684e-09 -2.94776e-09 10.2786 0.731801 0.0259123 -5.78491e-10 1.00684e-09 -2.94775e-09 2.22167 -0.733487 -0.20892 1.43795e-14 2.15696e-13 -4.91289e-14 -22.1176 0.882781 1.84518 3.16201 -1.27578 -5.09984 -0.0034987 1.32998 -0.186742 8.67613e-11 1.04395e-10 2.44869e-09 1.62579e-10 1.74403e-10 4.23096e-09 8.67559e-11 1.04398e-10 2.4487e-09 -7.73091 5.47488 -0.417314 8.67612e-11 1.04394e-10 2.44869e-09 -2.90554 0.965183 -0.102902 8.6757e-11 1.04394e-10 2.44869e-09 -10.2786 0.731801 -0.0259123 8.67689e-11 1.04396e-10 2.44868e-09 -2.22167 -0.733487 0.20892 -2.03217e-16 0.0 -3.88251e-19 3.42309 -1.13999 0.44093 -0.0210638 3.53748 0.00240856 -0.637858 -1.53295 -1.46148 2.03217e-16 0.0 3.88251e-19 2.40045 -17.211 0.797437 0.0808416 17.3441 -0.167469 0.607997 -2.07494 0.788754
80.4465 82.4075 99.4056 -131.222 -74.0676 138.754 6.03397 6.00463 1.59043 -0.399652 -1.17609 0.463046 -4.97952 7.734 -4.49151 5.7513 -16.0926 -7.26949 -0.0 0.0 0.0 -0.0 0.0 0.0 3.88425e-14 3.84854e-13 -9.79356e-14 43.7336 7.95406 2.7568 -5.51386 -2.16508 9.28863 -0.0141964 -7.01185 -0.985053 -1.16654e-09 2.04848e-09 -6.05037e-09 -1.9692e-09 3.54602e-09 -1.04651e-08 -1.16654e-09 2.04848e-09 -6.05037e-09 7.73091 5.47488 0.417314 -1.16655e-09 2.04848e-09 -6.05037e-09 2.90554 0.965183 0.102902 -1.16654e-09 2.04848e-09 -6.05037e-09 10.2786 0.731801 0.0259123 -1.16655e-09 2.04848e-09 -6.05037e-09 2.22167 -0.733487 -0.20892 3.87388e-14 3.84861e-13 -9.82524e-14 -45.559 1.8191 3.77406 6.25403 -2.58789 -10.4915 0.00234133 2.76097 -0.388015 1.93881e-10 2.27185e-10 5.04548e-09 3.61171e-10 3.80327e-10 8.71795e-09 1.93876e-10 2.27187e-10 5.0455e-09 -7.73091 5.47488 -0.417314 1.93881e-10 2.27183e-10 5.04549e-09 -2.90554 0.965183 -0.102902 1.93878e-10 2.27183e-10 5.04548e-09 -10.2786 0.731801 -0.0259123 1.93887e-10 2.27185e-10 5.04547e-09 -2.22167 -0.733487 0.20892 -2.03217e-16 0.0 -3.88251e-19 8.13896 -0.328916 0.885676 -0.0503231 9.46669 0.0851248 -1.11391 -7.38296 -3.17017 2.03217e-16 0.0 3.88251e-19 7.36757 -27.5249 1.50825 0.191444 27.2554 -0.231434 0.731118 -3.75538 1.67755
79.9312 82.4077 99.5088 -132.203 -73.9276 139.746 9.62471 8.75835 2.37444 -0.320012 -1.71678 0.724316 -6.83403 11.2375 -6.61628 6.89541 -23.2532 -11.0969 -0.0 0.0 0.0 -0.0 0.0 0.0 5.34327e-14 6.46915e-13 -1.46213e-13 63.5163 11.5212 4.03584 -7.79822 -3.10502 13.5396 -0.101038 -10.1628 -1.43995 -1.63533e-09 3.01897e-09 -8.83808e-09 -2.75837e-09 5.22584e-09 -1.52865e-08 -1.63532e-09 3.01897e-09 -8.83809e-09 7.73091 5.47488 0.417314 -1.63533e-09 3.01897e-09 -8.83808e-09 2.90554 0.965183 0.102902 -1.63532e-09 3.01897e-09 -8.83808e-09 10.2786 0.731801 0.0259123 -1.63533e-09 3.01897e-09 -8.83808e-09 2.22167 -0.733487 -0.20892 5.33744e-14 6.46923e-13 -1.46492e-13 -66.5233 2.63735 5.54076 8.8125 -3.70624 -15.3286 0.0155657 3.98977 -0.561435 3.6052e-10 3.11593e-10 7.35125e-09 6.6081e-10 5.20462e-10 1.27018e-08 3.60514e-10 3.11594e-10 7.35127e-09 -7.73091 5.47488 -0.417314 3.6052e-10 3.1159e-10 7.35126e-09 -2.90554 0.965183 -0.102902 3.60517e-10 3.11589e-10 7.35125e-09 -10.2786 0.731801 -0.0259123 3.60524e-10 3.11591e-10 7.35124e-09 -2.22167 -0.733487 0.20892 -2.03217e-16 0.0 -3.88251e-19 12.3305 0.434124 1.32194 -0.0913864 14.7695 0.162287 -1.84401 -12.5544 -4.77547 2.03217e-16 0.0 3.88251e-19 12.076 -36.6755 2.34347 0.314319 36.1105 -0.305431 0.884545 -5.22314 2.47661
